<svg viewBox="0 0 390 844" xmlns="http://www.w3.org/2000/svg">
  <!-- Gradient background -->
  <defs>
    <linearGradient id="bgGradient" x1="0%" y1="0%" x2="100%" y2="100%">
      <stop offset="0%" style="stop-color:#2d0a31;stop-opacity:1" />
      <stop offset="100%" style="stop-color:#5b0060;stop-opacity:1" />
    </linearGradient>
    <radialGradient id="glowGradient" cx="50%" cy="30%" r="70%" fx="50%" fy="30%">
      <stop offset="0%" style="stop-color:#ff5252;stop-opacity:0.3" />
      <stop offset="100%" style="stop-color:#ff5252;stop-opacity:0" />
    </radialGradient>
  </defs>
  
  <!-- Background -->
  <rect width="390" height="844" fill="url(#bgGradient)" />
  
  <!-- Glow effect -->
  <circle cx="195" cy="250" r="200" fill="url(#glowGradient)" />
  
  <!-- Stars -->
  <g fill="#ffffff" opacity="0.7">
    <circle cx="50" cy="100" r="1" />
    <circle cx="120" cy="60" r="1.2" />
    <circle cx="200" cy="40" r="0.8" />
    <circle cx="280" cy="90" r="1" />
    <circle cx="350" cy="70" r="1.3" />
    <circle cx="30" cy="200" r="1.1" />
    <circle cx="90" cy="150" r="0.9" />
    <circle cx="170" cy="180" r="1" />
    <circle cx="240" cy="140" r="1.2" />
    <circle cx="320" cy="170" r="0.8" />
    <circle cx="370" cy="220" r="1" />
    <circle cx="60" cy="300" r="1.3" />
    <circle cx="140" cy="260" r="0.9" />
    <circle cx="210" cy="320" r="1" />
    <circle cx="310" cy="290" r="1.2" />
    <circle cx="360" cy="350" r="0.8" />
    <circle cx="40" cy="400" r="1" />
    <circle cx="100" cy="370" r="1.1" />
    <circle cx="180" cy="420" r="0.9" />
    <circle cx="260" cy="380" r="1" />
    <circle cx="330" cy="430" r="1.2" />
    <circle cx="380" cy="480" r="0.8" />
    <circle cx="70" cy="520" r="1" />
    <circle cx="130" cy="490" r="1.3" />
    <circle cx="220" cy="550" r="0.9" />
    <circle cx="300" cy="510" r="1" />
    <circle cx="350" cy="580" r="1.2" />
    <circle cx="30" cy="630" r="0.8" />
    <circle cx="90" cy="600" r="1" />
    <circle cx="160" cy="650" r="1.1" />
    <circle cx="240" cy="610" r="0.9" />
    <circle cx="320" cy="660" r="1" />
    <circle cx="370" cy="710" r="1.2" />
    <circle cx="50" cy="750" r="0.8" />
    <circle cx="130" cy="720" r="1" />
    <circle cx="200" cy="770" r="1.3" />
    <circle cx="280" cy="730" r="0.9" />
    <circle cx="340" cy="780" r="1" />
  </g>
  
  <!-- Mystical symbols -->
  <g stroke="#ffa1a1" stroke-width="1" fill="none" opacity="0.25">
    <circle cx="70" cy="200" r="15" />
    <circle cx="70" cy="200" r="8" />
    <line x1="55" y1="200" x2="85" y2="200" />
    <line x1="70" y1="185" x2="70" y2="215" />
    
    <circle cx="320" cy="400" r="20" />
    <polygon points="320,380 310,400 320,420 330,400" />
    
    <circle cx="180" cy="650" r="18" />
    <circle cx="180" cy="650" r="10" />
    <polygon points="180,632 173,650 180,668 187,650" />
    
    <circle cx="300" cy="150" r="12" />
    <line x1="288" y1="150" x2="312" y2="150" />
    <line x1="300" y1="138" x2="300" y2="162" />
    <line x1="290" y1="140" x2="310" y2="160" />
    <line x1="290" y1="160" x2="310" y2="140" />
  </g>
  
  <!-- Subtle spiral patterns -->
  <path d="M50,500 Q90,510 70,540 Q40,570 70,590 Q100,610 80,640" 
        stroke="#ff7b7b" stroke-width="1" fill="none" opacity="0.2" />
  <path d="M340,300 Q300,320 320,350 Q350,380 320,400 Q290,420 310,450" 
        stroke="#ff7b7b" stroke-width="1" fill="none" opacity="0.2" />
        
  <!-- Additional mystical elements -->
  <g stroke="#ffd1d1" stroke-width="0.7" fill="none" opacity="0.15">
    <path d="M30,310 L60,330 L30,350 L60,370" />
    <path d="M350,530 L320,550 L350,570 L320,590" />
    
    <!-- Small magical circles -->
    <circle cx="120" cy="220" r="5" />
    <circle cx="120" cy="220" r="10" stroke-dasharray="1,2" />
    
    <circle cx="270" cy="580" r="7" />
    <circle cx="270" cy="580" r="14" stroke-dasharray="1,2" />
    
    <circle cx="90" cy="700" r="6" />
    <circle cx="90" cy="700" r="12" stroke-dasharray="1,2" />
  </g>
</svg>
